<svg xmlns="http://www.w3.org/2000/svg" xmlns:xlink="http://www.w3.org/1999/xlink" width="500" zoomAndPan="magnify" viewBox="0 0 375 299.999988" height="400" preserveAspectRatio="xMidYMid meet" version="1.0"><defs><clipPath id="260fc354f6"><path d="M 6.40625 30 L 363.40625 30 L 363.40625 280 L 6.40625 280 Z M 6.40625 30 " clip-rule="nonzero"/></clipPath><clipPath id="0b4a690b24"><path d="M 0.40625 0.238281 L 357 0.238281 L 357 249.839844 L 0.40625 249.839844 Z M 0.40625 0.238281 " clip-rule="nonzero"/></clipPath><clipPath id="0ac43750ca"><path d="M 284 0.238281 L 357 0.238281 L 357 73 L 284 73 Z M 284 0.238281 " clip-rule="nonzero"/></clipPath><clipPath id="27a6898b37"><rect x="0" width="358" y="0" height="250"/></clipPath></defs><rect x="-37.5" width="450" fill="#ffffff" y="-29.999999" height="359.999986" fill-opacity="1"/><rect x="-37.5" width="450" fill="#ffffff" y="-29.999999" height="359.999986" fill-opacity="1"/><g clip-path="url(#260fc354f6)"><g transform="matrix(1, 0, 0, 1, 6, 30)"><g clip-path="url(#27a6898b37)"><g clip-path="url(#0b4a690b24)"><path fill="#d81610" d="M 327.460938 107.265625 C 341.660156 110.039062 355.628906 122.230469 356.707031 140.574219 C 357.664062 156.800781 347.835938 171.234375 332.847656 176.570312 C 328.949219 177.957031 324.933594 178.570312 320.785156 178.625 C 314.871094 178.71875 309.179688 179.964844 304.03125 182.96875 C 293.046875 189.394531 286.84375 198.859375 285.972656 211.691406 C 285.738281 215.140625 285.5625 218.65625 284.78125 222.003906 C 280.679688 239.496094 264.84375 250.105469 248.75 249.613281 C 230.753906 249.0625 215.617188 234.949219 214.148438 217 C 213.972656 214.796875 213.832031 212.59375 213.664062 210.398438 C 212.363281 193.496094 198.515625 181.015625 184.6875 179.230469 C 182.550781 178.953125 180.402344 178.757812 178.253906 178.636719 C 172.386719 178.738281 166.742188 179.992188 161.636719 182.976562 C 150.65625 189.402344 144.453125 198.871094 143.578125 211.703125 C 143.347656 215.152344 143.171875 218.667969 142.390625 222.015625 C 138.277344 239.496094 122.441406 250.105469 106.347656 249.613281 C 88.355469 249.0625 73.214844 234.949219 71.746094 217 C 71.570312 214.796875 71.429688 212.59375 71.261719 210.398438 C 69.960938 193.496094 56.113281 181.015625 42.289062 179.230469 C 39.796875 178.90625 37.277344 178.691406 34.765625 178.570312 C 19.144531 177.84375 5.800781 167.066406 1.753906 151.929688 C 0.722656 148.070312 0.574219 144.144531 0.574219 140.203125 C 0.574219 125.753906 0.472656 73.058594 0.398438 36.644531 C 0.359375 16.652344 16.640625 0.460938 36.644531 0.628906 C 56.347656 0.785156 72.257812 16.789062 72.296875 36.496094 C 72.371094 72.675781 72.492188 125.425781 72.527344 139.839844 C 72.527344 143.140625 72.582031 146.515625 73.234375 149.726562 C 76.453125 165.8125 90.605469 177.433594 106.90625 177.613281 C 123.644531 177.789062 137.960938 166.601562 141.570312 150.375 C 142.183594 147.625 142.25 144.75 142.554688 141.933594 C 142.734375 140.257812 142.769531 138.558594 142.984375 136.894531 C 142.964844 118.945312 142.882812 70.675781 142.808594 36.632812 C 142.769531 16.640625 159.050781 0.453125 179.054688 0.621094 C 198.757812 0.777344 214.667969 16.78125 214.707031 36.484375 C 214.78125 72.667969 214.902344 125.417969 214.9375 139.832031 C 214.9375 143.132812 214.992188 146.507812 215.644531 149.714844 C 218.863281 165.804688 233.015625 177.425781 249.316406 177.601562 C 266.054688 177.78125 280.375 166.59375 283.980469 150.367188 C 284.59375 147.613281 284.660156 144.742188 284.96875 141.921875 C 285.199219 139.730469 285.191406 137.488281 285.664062 135.347656 C 290.492188 113.359375 311.308594 104.097656 327.492188 107.257812 Z M 327.460938 107.265625 " fill-opacity="1" fill-rule="nonzero"/></g><g clip-path="url(#0ac43750ca)"><path fill="#d81610" d="M 321.714844 72.5625 C 302.132812 72.984375 285.171875 57.371094 284.976562 37.210938 C 284.503906 17.988281 299.621094 1.195312 320.015625 0.628906 C 339.949219 0.0820312 356.492188 15.878906 356.773438 35.984375 C 357.078125 57.816406 339.503906 72.171875 321.707031 72.5625 Z M 321.714844 72.5625 " fill-opacity="1" fill-rule="nonzero"/></g></g></g></g></svg>